<?xml version="1.0" encoding="UTF-8"?>
<svg id="Layer_2" data-name="Layer 2" xmlns="http://www.w3.org/2000/svg" viewBox="0 0 229.94 229.94">
  <defs>
    <style>
      .cls-1 {
        fill: none;
        stroke: #fff;
        stroke-miterlimit: 10;
        stroke-width: 6px;
      }
    </style>
  </defs>
  <g id="Layer_2-2" data-name="Layer 2">
    <path class="cls-1" d="M114.97,8.64l14.3,38.65c9.15,24.73,28.65,44.23,53.38,53.38l38.65,14.3-38.65,14.3c-24.73,9.15-44.23,28.65-53.38,53.38l-14.3,38.65-14.3-38.65c-9.15-24.73-28.65-44.23-53.38-53.38l-38.65-14.3,38.65-14.3c24.73-9.15,44.23-28.65,53.38-53.38l14.3-38.65Z"/>
    <path class="cls-1" d="M114.97,46.75h0c11.7,31.61,36.62,56.53,68.22,68.22h0s0,0,0,0c-31.61,11.7-56.53,36.62-68.22,68.22h0s0,0,0,0c-11.7-31.61-36.62-56.53-68.22-68.22h0s0,0,0,0c31.61-11.7,56.53-36.62,68.22-68.22h0Z"/>
  </g>
</svg>