<?xml version="1.0" encoding="UTF-8"?>
<svg id="Layer_2" data-name="Layer 2" xmlns="http://www.w3.org/2000/svg" viewBox="0 0 220.71 209.91">
  <defs>
    <style>
      .cls-1 {
        fill: none;
        stroke: #fff;
        stroke-miterlimit: 10;
        stroke-width: 6px;
      }
    </style>
  </defs>
  <g id="Layer_2-2" data-name="Layer 2">
    <path class="cls-1" d="M110.36,9.71l3.59,11.04c12.09,37.22,46.78,62.43,85.92,62.43h11.61s-9.4,6.83-9.4,6.83c-31.66,23.01-44.91,63.78-32.82,101.01l3.59,11.04-9.4-6.83c-31.66-23.01-74.54-23.01-106.21,0l-9.4,6.83,3.59-11.04c12.09-37.22-1.15-78-32.82-101.01l-9.4-6.83h11.61c39.14,0,73.83-25.2,85.92-62.43l3.59-11.04Z"/>
    <path class="cls-1" d="M110.36,38.1l2.58,7.94c8.69,26.75,33.62,44.86,61.74,44.86h8.34s-6.75,4.9-6.75,4.9c-22.75,16.53-32.27,45.83-23.58,72.58l2.58,7.94-6.75-4.9c-22.75-16.53-53.56-16.53-76.32,0l-6.75,4.9,2.58-7.94c8.69-26.75-.83-56.05-23.58-72.58l-6.75-4.9h8.34c28.12,0,53.05-18.11,61.74-44.86l2.58-7.94Z"/>
  </g>
</svg>